<svg width="165" height="449" viewBox="0 0 165 449" fill="none" xmlns="http://www.w3.org/2000/svg">
<path d="M156 9H9V440H156V9Z" fill="#F99D25"/>
<path d="M41.5846 33.0247H17.1198V95.8864H41.5846V33.0247Z" fill="white"/>
<path d="M77.4383 33.0247H52.9735V95.8864H77.4383V33.0247Z" fill="white"/>
<path d="M113.081 33.0247H88.6162V95.8864H113.081V33.0247Z" fill="white"/>
<path d="M147.88 33.0247H123.415V95.8864H147.88V33.0247Z" fill="white"/>
<path d="M147.88 134.181H123.415V197.043H147.88V134.181Z" fill="white"/>
<path d="M41.5846 134.181H17.1198V197.043H41.5846V134.181Z" fill="white"/>
<path d="M77.4383 134.181H52.9735V197.043H77.4383V134.181Z" fill="white"/>
<path d="M113.081 134.181H88.6162V197.043H113.081V134.181Z" fill="white"/>
<path d="M41.5846 229.558H17.1198V292.42H41.5846V229.558Z" fill="white"/>
<path d="M77.4383 229.558H52.9735V292.42H77.4383V229.558Z" fill="white"/>
<path d="M113.081 229.558H88.6162V292.42H113.081V229.558Z" fill="white"/>
<path d="M147.88 229.558H123.415V292.42H147.88V229.558Z" fill="white"/>
<path d="M41.5846 336.495H17.1198V399.357H41.5846V336.495Z" fill="white"/>
<path d="M77.4383 336.495H52.9735V399.357H77.4383V336.495Z" fill="white"/>
<path d="M113.081 336.495H88.6162V399.357H113.081V336.495Z" fill="white"/>
<path d="M147.88 336.495H123.415V399.357H147.88V336.495Z" fill="white"/>
<path d="M160.5 9V4.5H156H9H4.5V9V440V444.5H9H156H160.5V440V9Z" stroke="white" stroke-width="9"/>
</svg>
