<svg width="700" height="1196" viewBox="0 0 700 1196" fill="none" xmlns="http://www.w3.org/2000/svg">
<rect x="1.5" y="1.5" width="697" height="1193" fill="#A2624B" stroke="black" stroke-width="3"/>
<rect x="40" y="68" width="116" height="174" fill="#D9D9D9"/>
<rect x="210" y="68" width="116" height="174" fill="#D9D9D9"/>
<rect x="379" y="68" width="116" height="174" fill="#D9D9D9"/>
<rect x="544" y="68" width="116" height="174" fill="#D9D9D9"/>
<rect x="544" y="348" width="116" height="174" fill="#D9D9D9"/>
<rect x="40" y="348" width="116" height="174" fill="#D9D9D9"/>
<rect x="210" y="348" width="116" height="174" fill="#D9D9D9"/>
<rect x="379" y="348" width="116" height="174" fill="#D9D9D9"/>
<rect x="40" y="612" width="116" height="174" fill="#D9D9D9"/>
<rect x="210" y="612" width="116" height="174" fill="#D9D9D9"/>
<rect x="379" y="612" width="116" height="174" fill="#D9D9D9"/>
<rect x="544" y="612" width="116" height="174" fill="#D9D9D9"/>
<rect x="40" y="908" width="116" height="174" fill="#D9D9D9"/>
<rect x="210" y="908" width="116" height="174" fill="#D9D9D9"/>
<rect x="379" y="908" width="116" height="174" fill="#D9D9D9"/>
<rect x="544" y="908" width="116" height="174" fill="#D9D9D9"/>
</svg>
