<svg width="147" height="202" viewBox="0 0 147 202" fill="none" xmlns="http://www.w3.org/2000/svg">
<path d="M146.858 0H0V201.641H146.858V0Z" fill="white"/>
<path d="M34.2389 67.1082H9.79758V115.569H34.2389V67.1082Z" fill="#F99D25"/>
<path d="M70.058 67.1082H45.6167V115.569H70.058V67.1082Z" fill="#F99D25"/>
<path d="M105.666 67.1082H81.2251V115.569H105.666V67.1082Z" fill="#F99D25"/>
<path d="M140.432 67.1082H115.991V115.569H140.432V67.1082Z" fill="#F99D25"/>
<path d="M34.2389 125.683H9.79758V174.144H34.2389V125.683Z" fill="#F99D25"/>
<path d="M70.058 125.683H45.6167V174.144H70.058V125.683Z" fill="#F99D25"/>
<path d="M105.666 125.683H81.2251V174.144H105.666V125.683Z" fill="#F99D25"/>
<path d="M140.432 125.683H115.991V174.144H140.432V125.683Z" fill="#F99D25"/>
<path d="M34.2389 8.95478H9.79758V57.4159H34.2389V8.95478Z" fill="#F99D25"/>
<path d="M70.058 8.95478H45.6167V57.4159H70.058V8.95478Z" fill="#F99D25"/>
<path d="M105.666 8.95478H81.2251V57.4159H105.666V8.95478Z" fill="#F99D25"/>
<path d="M140.432 8.95478H115.991V57.4159H140.432V8.95478Z" fill="#F99D25"/>
</svg>
