<svg width="165" height="270" viewBox="0 0 165 270" fill="none" xmlns="http://www.w3.org/2000/svg">
<path d="M155.858 9H9V260.366H155.858V9Z" fill="#F99D25"/>
<path d="M41.5533 23.0116H17.112V59.6735H41.5533V23.0116Z" fill="white"/>
<path d="M77.3724 23.0116H52.9311V59.6735H77.3724V23.0116Z" fill="white"/>
<path d="M112.981 23.0116H88.5395V59.6735H112.981V23.0116Z" fill="white"/>
<path d="M147.746 23.0116H123.305V59.6735H147.746V23.0116Z" fill="white"/>
<path d="M147.746 82.0078H123.305V118.67H147.746V82.0078Z" fill="white"/>
<path d="M41.5533 82.0078H17.112V118.67H41.5533V82.0078Z" fill="white"/>
<path d="M77.3724 82.0078H52.9311V118.67H77.3724V82.0078Z" fill="white"/>
<path d="M112.981 82.0078H88.5395V118.67H112.981V82.0078Z" fill="white"/>
<path d="M41.5533 137.633H17.112V174.295H41.5533V137.633Z" fill="white"/>
<path d="M77.3724 137.633H52.9311V174.295H77.3724V137.633Z" fill="white"/>
<path d="M112.981 137.633H88.5395V174.295H112.981V137.633Z" fill="white"/>
<path d="M147.746 137.633H123.305V174.295H147.746V137.633Z" fill="white"/>
<path d="M41.5533 200H17.112V236.662H41.5533V200Z" fill="white"/>
<path d="M77.3724 200H52.9311V236.662H77.3724V200Z" fill="white"/>
<path d="M112.981 200H88.5395V236.662H112.981V200Z" fill="white"/>
<path d="M147.746 200H123.305V236.662H147.746V200Z" fill="white"/>
<path d="M160.358 9V4.5H155.858H9H4.5V9V260.366V264.866H9H155.858H160.358V260.366V9Z" stroke="white" stroke-width="9"/>
</svg>
