<svg width="431" height="285" viewBox="0 0 431 285" fill="none" xmlns="http://www.w3.org/2000/svg">
<path d="M178.838 139.494C178.838 188.879 138.804 228.913 89.4191 228.913C40.0343 228.913 0 188.879 0 139.494C0 90.109 40.0343 50.0747 89.4191 50.0747C138.804 50.0747 178.838 90.109 178.838 139.494Z" fill="white"/>
<path d="M309.39 89.4191C309.39 138.804 269.356 178.838 219.971 178.838C170.586 178.838 130.552 138.804 130.552 89.4191C130.552 40.0343 170.586 0 219.971 0C269.356 0 309.39 40.0343 309.39 89.4191Z" fill="white"/>
<path d="M431 160.954C431 210.339 390.966 250.373 341.581 250.373C292.196 250.373 252.162 210.339 252.162 160.954C252.162 111.57 292.196 71.5353 341.581 71.5353C390.966 71.5353 431 111.57 431 160.954Z" fill="white"/>
<path d="M309.39 194.934C309.39 244.318 269.356 284.353 219.971 284.353C170.586 284.353 130.552 244.318 130.552 194.934C130.552 145.549 170.586 105.515 219.971 105.515C269.356 105.515 309.39 145.549 309.39 194.934Z" fill="white"/>
</svg>
