<svg width="173" height="63" viewBox="0 0 173 63" fill="none" xmlns="http://www.w3.org/2000/svg">
<rect x="22.1597" y="0.175659" width="117.19" height="14.4617" rx="4.98679" fill="#FFB74D"/>
<rect x="22.1597" y="47.5502" width="117.19" height="14.4617" rx="4.98679" fill="#FFB74D"/>
<rect x="31.136" y="14.6373" width="101.73" height="32.9128" fill="#795548"/>
<path d="M53.912 40.9211C53.6023 40.9845 53.2833 40.9884 52.9721 40.9326L33.1731 37.3843C30.1972 36.851 30.5592 32.474 33.5823 32.4368L73.0871 31.9511C76.1102 31.9139 76.5797 36.2807 73.6178 36.887L53.912 40.9211Z" fill="#7CB342"/>
<path d="M105.923 41.125C105.675 41.1659 105.422 41.1691 105.172 41.1342L80.1267 37.6337C77.0741 37.207 77.3592 32.709 80.4412 32.6711L130.439 32.0563C133.521 32.0184 133.917 36.5081 130.875 37.0097L105.923 41.125Z" fill="#7CB342"/>
<rect x="27.645" y="25.6083" width="106.717" height="7.97886" rx="2.49339" fill="#F7A014"/>
<path d="M75.045 43.7691C74.0695 44.7531 72.4789 44.7531 71.5034 43.7691L57.836 29.9817C56.2758 28.4078 57.3907 25.7329 59.6068 25.7329L86.9417 25.7329C89.1578 25.7329 90.2726 28.4078 88.7124 29.9817L75.045 43.7691Z" fill="#FFEB3B"/>
<circle cx="109.927" cy="25.6082" r="6.9815" fill="#B71C1C"/>
<circle cx="117.407" cy="26.107" r="6.9815" fill="#E44B4D"/>
<circle cx="50.0856" cy="24.6109" r="7.97886" fill="#E44B4D"/>
</svg>
