<svg width="1029" height="1690" viewBox="0 0 1029 1690" fill="none" xmlns="http://www.w3.org/2000/svg">
<g clip-path="url(#clip0_173_112)">
<mask id="mask0_173_112" style="mask-type:luminance" maskUnits="userSpaceOnUse" x="0" y="0" width="1029" height="1690">
<path d="M1029 0H0V1690H1029V0Z" fill="white"/>
</mask>
<g mask="url(#mask0_173_112)">
<path d="M764 430H252V981H764V430Z" fill="#E5E8EF"/>
<path d="M764 957H252V1145H764V957Z" fill="#435E88"/>
<path d="M642.93 556.298C628.056 527.338 639.475 491.805 668.434 476.931C697.394 462.058 732.927 473.476 747.801 502.435L1001.16 995.727C1016.03 1024.69 1004.61 1060.22 975.654 1075.09C946.695 1089.97 911.161 1078.55 896.288 1049.59L769.609 802.943L642.93 556.298Z" fill="#FFCEB8"/>
<path d="M246.623 503.974C259.71 474.165 294.484 460.609 324.294 473.696C354.103 486.784 367.659 521.558 354.572 551.367L131.645 1059.14C118.558 1088.95 83.7837 1102.5 53.9745 1089.41C24.1653 1076.33 10.6094 1041.55 23.6965 1011.74L135.16 757.859L246.623 503.974Z" fill="#FFCEB8"/>
<path d="M380.507 490.318L270.436 442L41 964.669L151.071 1012.99L380.507 490.318Z" fill="#E5E8EF"/>
<path d="M711.279 431.329L604.354 486.257L876.828 1016.66L983.753 961.734L711.279 431.329Z" fill="#E5E8EF"/>
<path d="M252 1018H437V1690H252V1354V1018Z" fill="#435E88"/>
<path d="M579 1018H764V1690H579V1354V1018Z" fill="#435E88"/>
<path d="M746 236.5C746 367.115 639.444 473 508 473C376.556 473 270 367.115 270 236.5C270 105.885 376.556 0 508 0C639.444 0 746 105.885 746 236.5Z" fill="#FFCEB8"/>
<path d="M746 236.5C746 367.115 639.444 473 508 473C376.556 473 270 367.115 270 236.5C270 105.885 376.556 0 508 0C639.444 0 746 105.885 746 236.5Z" stroke="black"/>
<path d="M582 295C604.091 295 622 251.124 622 197C622 142.876 604.091 99 582 99C559.909 99 542 142.876 542 197C542 251.124 559.909 295 582 295Z" fill="black"/>
<path d="M621 333C621 378.287 570.408 415 508 415C445.592 415 395 378.287 395 333" stroke="black" stroke-width="6"/>
<path d="M423 297C445.091 297 463 253.124 463 199C463 144.876 445.091 101 423 101C400.909 101 383 144.876 383 199C383 253.124 400.909 297 423 297Z" fill="black"/>
</g>
</g>
<defs>
<clipPath id="clip0_173_112">
<rect width="1029" height="1690" fill="white"/>
</clipPath>
</defs>
</svg>
