<svg width="619" height="262" viewBox="0 0 619 262" fill="none" xmlns="http://www.w3.org/2000/svg">
<g clip-path="url(#clip0_293_47)">
<path d="M130.143 82.7583H0.279297V261.065H130.143V82.7583Z" fill="#828282" stroke="black" stroke-width="0.558956"/>
<path d="M30.5553 142.101H8.94238V184.954H30.5553V142.101Z" fill="#D9D9D9"/>
<path d="M62.2301 142.101H40.6172V184.954H62.2301V142.101Z" fill="#D9D9D9"/>
<path d="M93.7174 142.101H72.1045V184.954H93.7174V142.101Z" fill="#D9D9D9"/>
<path d="M124.461 142.101H102.848V184.954H124.461V142.101Z" fill="#D9D9D9"/>
<path d="M30.5553 193.897H8.94238V236.751H30.5553V193.897Z" fill="#D9D9D9"/>
<path d="M62.2301 193.897H40.6172V236.751H62.2301V193.897Z" fill="#D9D9D9"/>
<path d="M93.7174 193.897H72.1045V236.751H93.7174V193.897Z" fill="#D9D9D9"/>
<path d="M124.461 193.897H102.848V236.751H124.461V193.897Z" fill="#D9D9D9"/>
<path d="M30.5553 90.6768H8.94238V133.53H30.5553V90.6768Z" fill="#D9D9D9"/>
<path d="M62.2301 90.6768H40.6172V133.53H62.2301V90.6768Z" fill="#D9D9D9"/>
<path d="M93.7174 90.6768H72.1045V133.53H93.7174V90.6768Z" fill="#D9D9D9"/>
<path d="M124.461 90.6768H102.848V133.53H124.461V90.6768Z" fill="#D9D9D9"/>
</g>
<g clip-path="url(#clip1_293_47)">
<path d="M279.943 36.2388H150.079V258.517H279.943V36.2388Z" fill="#A2624B" stroke="black" stroke-width="0.558956"/>
<path d="M178.865 48.6289H157.252V81.0483H178.865V48.6289Z" fill="#D9D9D9"/>
<path d="M210.54 48.6289H188.927V81.0483H210.54V48.6289Z" fill="#D9D9D9"/>
<path d="M242.028 48.6289H220.415V81.0483H242.028V48.6289Z" fill="#D9D9D9"/>
<path d="M272.769 48.6289H251.156V81.0483H272.769V48.6289Z" fill="#D9D9D9"/>
<path d="M272.769 100.798H251.156V133.218H272.769V100.798Z" fill="#D9D9D9"/>
<path d="M178.865 100.798H157.252V133.218H178.865V100.798Z" fill="#D9D9D9"/>
<path d="M210.54 100.798H188.927V133.218H210.54V100.798Z" fill="#D9D9D9"/>
<path d="M242.028 100.798H220.415V133.218H242.028V100.798Z" fill="#D9D9D9"/>
<path d="M178.865 149.986H157.252V182.406H178.865V149.986Z" fill="#D9D9D9"/>
<path d="M210.54 149.986H188.927V182.406H210.54V149.986Z" fill="#D9D9D9"/>
<path d="M242.028 149.986H220.415V182.406H242.028V149.986Z" fill="#D9D9D9"/>
<path d="M272.769 149.986H251.156V182.406H272.769V149.986Z" fill="#D9D9D9"/>
<path d="M178.865 205.137H157.252V237.556H178.865V205.137Z" fill="#D9D9D9"/>
<path d="M210.54 205.137H188.927V237.556H210.54V205.137Z" fill="#D9D9D9"/>
<path d="M242.028 205.137H220.415V237.556H242.028V205.137Z" fill="#D9D9D9"/>
<path d="M272.769 205.137H251.156V237.556H272.769V205.137Z" fill="#D9D9D9"/>
</g>
<g clip-path="url(#clip2_293_47)">
<path d="M423.222 20.5879H306.027V260.752H423.222V20.5879Z" fill="#4A5359" stroke="black" stroke-width="0.558956"/>
<path d="M416.773 31.9824H397.26V249.358H416.773V31.9824Z" fill="#D9D9D9"/>
<path d="M331.99 31.9824H312.477V249.358H331.99V31.9824Z" fill="#D9D9D9"/>
<path d="M360.589 31.9824H341.075V249.358H360.589V31.9824Z" fill="#D9D9D9"/>
<path d="M389.016 31.9824H369.503V249.358H389.016V31.9824Z" fill="#D9D9D9"/>
</g>
<g clip-path="url(#clip3_293_47)">
<path d="M618.672 0.279297H449.309V258.517H618.672V0.279297Z" fill="#90AD71" stroke="black" stroke-width="0.558956"/>
<path d="M608.516 12.6694H456.48V55.1501H608.516V12.6694Z" fill="#D9D9D9"/>
<path d="M608.516 66.3296H456.48V108.81H608.516V66.3296Z" fill="#D9D9D9"/>
<path d="M608.516 119.989H456.48V162.47H608.516V119.989Z" fill="#D9D9D9"/>
<path d="M608.516 173.649H456.48V216.13H608.516V173.649Z" fill="#D9D9D9"/>
</g>
<defs>
<clipPath id="clip0_293_47">
<rect width="130.423" height="178.866" fill="white" transform="translate(0 82.479)"/>
</clipPath>
<clipPath id="clip1_293_47">
<rect width="130.423" height="222.837" fill="white" transform="translate(149.8 35.9595)"/>
</clipPath>
<clipPath id="clip2_293_47">
<rect width="117.753" height="240.724" fill="white" transform="translate(305.748 20.3086)"/>
</clipPath>
<clipPath id="clip3_293_47">
<rect width="169.922" height="258.796" fill="white" transform="translate(449.028)"/>
</clipPath>
</defs>
</svg>
