<svg width="1029" height="1690" viewBox="0 0 1029 1690" fill="none" xmlns="http://www.w3.org/2000/svg">
<g clip-path="url(#clip0_170_70)">
<path d="M764 430H252V981H764V430Z" fill="#E5E8EF"/>
<path d="M764 957H252V1145H764V957Z" fill="#435E88"/>
<path d="M642.931 556.298C628.057 527.338 639.476 491.805 668.435 476.931C697.395 462.058 732.928 473.476 747.802 502.435L1001.16 995.727C1016.03 1024.69 1004.61 1060.22 975.655 1075.09C946.696 1089.97 911.162 1078.55 896.289 1049.59L769.61 802.943L642.931 556.298Z" fill="#703D2B"/>
<path d="M246.623 503.974C259.71 474.165 294.484 460.609 324.294 473.696C354.103 486.784 367.659 521.558 354.572 551.367L131.645 1059.14C118.558 1088.95 83.7837 1102.5 53.9745 1089.41C24.1653 1076.33 10.6094 1041.55 23.6965 1011.74L135.16 757.859L246.623 503.974Z" fill="#703D2B"/>
<path d="M380.507 490.318L270.436 442L41.0002 964.669L151.071 1012.99L380.507 490.318Z" fill="#E5E8EF"/>
<path d="M711.279 431.329L604.354 486.257L876.828 1016.66L983.753 961.734L711.279 431.329Z" fill="#E5E8EF"/>
<path d="M252 1018H437V1690H252V1354V1018Z" fill="#435E88"/>
<path d="M579 1018H764V1690H579V1354V1018Z" fill="#435E88"/>
<path d="M746 236.5C746 367.115 639.444 473 508 473C376.556 473 270 367.115 270 236.5C270 105.885 376.556 0 508 0C639.444 0 746 105.885 746 236.5Z" fill="#703D2B"/>
<path d="M746 236.5C746 367.115 639.444 473 508 473C376.556 473 270 367.115 270 236.5C270 105.885 376.556 0 508 0C639.444 0 746 105.885 746 236.5Z" stroke="black"/>
<path d="M582 295C604.091 295 622 251.124 622 197C622 142.876 604.091 99 582 99C559.909 99 542 142.876 542 197C542 251.124 559.909 295 582 295Z" fill="black"/>
<path d="M395 390.016C395.424 368.468 446.35 351.996 508.746 353.224C571.142 354.453 621.38 372.917 620.956 394.465" stroke="black" stroke-width="6"/>
<path d="M423 297C445.091 297 463 253.124 463 199C463 144.876 445.091 101 423 101C400.909 101 383 144.876 383 199C383 253.124 400.909 297 423 297Z" fill="black"/>
</g>
<defs>
<clipPath id="clip0_170_70">
<rect width="1029" height="1690" fill="white"/>
</clipPath>
</defs>
</svg>
