<svg width="257" height="256" viewBox="0 0 257 256" fill="none" xmlns="http://www.w3.org/2000/svg">
<path d="M12.406 87.2688H245.289V240.363H12.406V87.2688Z" fill="#FFF5F5"/>
<path d="M128.598 34.9075L245.203 87.2688H11.9937L128.598 34.9075Z" fill="#FFF5F5"/>
<rect x="12.406" y="151.1" width="116.192" height="89.2635" fill="#D9E9EE"/>
<path d="M69.2555 151.125H12.4061V239.89H69.2555V151.125Z" fill="#EBEEF3"/>
<path d="M27.3664 196.754C27.3664 218.098 55.1939 242.134 75.9876 242.134C98.9268 224.68 120.37 197.252 121.118 150.875C121.462 129.534 106.256 140.403 85.4625 140.403C64.6688 140.403 27.3664 175.409 27.3664 196.754Z" fill="#EBEEF3"/>
<rect x="136.078" width="14.9604" height="14.9604" fill="#E50058"/>
<rect x="0.936523" y="240.363" width="255.324" height="14.9604" fill="#363C5A"/>
<rect x="128.598" y="151.1" width="116.691" height="89.2635" fill="#BEDCE1"/>
<path d="M188.445 151.623H245.295V240.388H188.445V151.623Z" fill="#D9E9EE"/>
<path d="M230.335 197.252C230.335 218.597 202.507 242.632 181.713 242.632C158.774 225.178 137.331 197.751 136.583 151.374C136.239 130.032 151.445 140.902 172.238 140.902C193.032 140.902 230.335 175.908 230.335 197.252Z" fill="#D9E9EE"/>
<rect x="128.598" y="240.363" width="127.662" height="14.9604" fill="#292942"/>
<path d="M128.598 86.2714H245.289V151.1H128.598V86.2714Z" fill="#EBEEF3"/>
<path d="M128.847 34.9075L245.289 86.2714H128.847V34.9075Z" fill="#EBEEF3"/>
<rect x="121.118" width="14.9604" height="38.3983" fill="#363C5A"/>
<rect x="128.598" width="7.48018" height="38.3983" fill="#292942"/>
<path d="M136.078 71.311H128.598V114.696H136.078V100.733H150.041V85.274H136.078V71.311Z" fill="#E50058"/>
<path d="M121.118 114.696H128.598V71.3111H121.118V85.2741H107.155V100.733H121.118V114.696Z" fill="#FF415B"/>
<rect x="52.7991" y="132.649" width="72.8071" height="18.4511" fill="#FFF5F5"/>
<rect x="196.917" y="151.1" width="48.3719" height="7.48018" fill="#D9E9EE"/>
</svg>
