<svg width="354" height="227" viewBox="0 0 354 227" fill="none" xmlns="http://www.w3.org/2000/svg">
<path d="M6.9656 111.72L28.0773 98.7015L25.2624 111.72H6.9656Z" fill="#E6E6E6"/>
<path d="M57.2819 57.1817L74.1379 33.5834C75.7901 31.2703 77.8242 29.2554 80.1529 27.6253V109.257H20.6882L57.2819 57.1817Z" fill="#E6E6E6"/>
<path d="M75.9306 37.4775C75.9306 29.7043 82.232 23.403 90.0051 23.403H125.191V109.257H75.9306V37.4775Z" fill="#E6E6E6"/>
<path d="M125.191 14.9583C125.191 7.18515 131.493 0.883789 139.266 0.883789H339.124C346.897 0.883789 353.198 7.18515 353.198 14.9583V178.926C353.198 186.699 346.897 193.001 339.124 193.001H139.266C131.493 193.001 125.191 186.699 125.191 178.926V14.9583Z" fill="#E6E6E6"/>
<path d="M0.63208 123.332C0.63208 115.559 6.93344 109.257 14.7066 109.257H143.488V193.001H14.7066C6.93345 193.001 0.63208 186.699 0.63208 178.926V123.332Z" fill="#E6E6E6"/>
<circle cx="75.5786" cy="192.649" r="34.1306" fill="#5D6972"/>
<circle cx="75.2269" cy="192.649" r="11.6115" fill="#A7D0E1"/>
<circle cx="295.845" cy="192.649" r="34.1306" fill="#5D6972"/>
<circle cx="295.493" cy="192.649" r="11.6115" fill="#A7D0E1"/>
<rect x="0.63208" y="126.147" width="352.566" height="22.5192" fill="#F97878"/>
<path d="M89.3464 44.5147C89.3464 41.7941 91.5519 39.5886 94.2725 39.5886H125.94V101.516H89.3464V44.5147Z" fill="#80BBCE"/>
<path d="M90.0501 42.0516L89.3464 101.516H47.0779L90.0501 42.0516Z" fill="#80BBCE"/>
<path d="M91.4126 69.8488L118.154 70.5525V84.627H101.968C96.1386 84.627 91.4126 79.901 91.4126 74.0711V69.8488Z" fill="#A7D0E1"/>
<path d="M118.506 84.627H125.895V39.5886H113.932L91.4126 69.8488L92.4682 72.6637L99.8573 71.2562V84.2751L118.506 84.627Z" fill="#A7D0E1"/>
<rect x="111.117" y="42.4036" width="11.2596" height="22.5192" rx="4.92607" fill="white"/>
<path d="M227.935 28.3291H250.454V95.8867H227.935V28.3291Z" fill="#F97878"/>
<path d="M205.416 50.8483H272.973V73.3675H205.416V50.8483Z" fill="#F97878"/>
</svg>
