<svg width="391" height="275" viewBox="0 0 391 275" fill="none" xmlns="http://www.w3.org/2000/svg">
<path d="M41.141 0.0118408H356.306L390.216 46.8877L0 46.6051L41.141 0.0118408Z" fill="#FF9811"/>
<path d="M350.073 74.0324H377.5V275H350.073V74.0324Z" fill="#ACABB1"/>
<path d="M13.963 74.0324H41.3903V275H13.963V74.0324Z" fill="#ACABB1"/>
<path d="M309.68 74.0324H330.624V227.626H309.68V74.0324Z" fill="#787680"/>
<path d="M60.8388 74.0324H81.7833V227.626H60.8388V74.0324Z" fill="#787680"/>
<path d="M13.963 73.8163H41.3903V88.278H13.963V73.8163Z" fill="#787680"/>
<path d="M350.073 73.8163H377.5V88.278H350.073V73.8163Z" fill="#787680"/>
<path d="M309.68 73.8163H330.624V80.2991H309.68V73.8163Z" fill="#57565C"/>
<path d="M60.8388 73.8163H81.7833V80.7978H60.8388V73.8163Z" fill="#57565C"/>
<path d="M0 46.6051L390.466 46.6051V74.0324H0V46.6051Z" fill="#FFA733"/>
</svg>
