<svg width="1029" height="1690" viewBox="0 0 1029 1690" fill="none" xmlns="http://www.w3.org/2000/svg">
<path d="M746 236.5C746 367.115 639.444 473 508 473C376.556 473 270 367.115 270 236.5C270 105.885 376.556 0 508 0C639.444 0 746 105.885 746 236.5Z" fill="#FFCEB8"/>
<path d="M746 236.5C746 367.115 639.444 473 508 473C376.556 473 270 367.115 270 236.5C270 105.885 376.556 0 508 0C639.444 0 746 105.885 746 236.5Z" stroke="black"/>
<rect x="252" y="957" width="512" height="188" fill="#4FB9FF"/>
<path d="M642.931 556.298C628.057 527.338 639.476 491.805 668.435 476.931C697.395 462.058 732.928 473.476 747.802 502.435L1001.16 995.727C1016.03 1024.69 1004.61 1060.22 975.655 1075.09C946.696 1089.97 911.162 1078.55 896.289 1049.59L769.61 802.943L642.931 556.298Z" fill="#FFCEB8"/>
<path d="M246.623 503.974C259.71 474.165 294.484 460.609 324.294 473.696C354.103 486.784 367.659 521.558 354.572 551.367L131.645 1059.14C118.558 1088.95 83.7837 1102.5 53.9744 1089.41C24.1652 1076.33 10.6093 1041.55 23.6964 1011.74L135.16 757.859L246.623 503.974Z" fill="#FFCEB8"/>
<rect x="270.436" y="442" width="120.209" height="570.81" transform="rotate(23.7 270.436 442)" fill="#E5E8EF"/>
<rect x="622.182" y="512.185" width="120.209" height="570.81" transform="rotate(-27.19 622.182 512.185)" fill="#E5E8EF"/>
<path d="M252 1018H437V1690H252L252 1354V1018Z" fill="#4FB9FF"/>
<path d="M579 1018H764V1690H579L579 1354V1018Z" fill="#4FB9FF"/>
<path d="M252 623.5H764V985.5H252V623.5Z" fill="url(#paint0_linear_161_240)"/>
<path d="M312 473.5H703V623.5H312V473.5Z" fill="url(#paint1_linear_161_240)"/>
<path d="M610 473C610 486.329 607.375 499.528 602.274 511.842C597.173 524.157 589.696 535.346 580.271 544.771C570.846 554.196 559.657 561.673 547.342 566.774C535.028 571.875 521.829 574.5 508.5 574.5C495.171 574.5 481.972 571.875 469.658 566.774C457.343 561.673 446.154 554.196 436.729 544.771C427.304 535.346 419.827 524.157 414.726 511.842C409.625 499.528 407 486.329 407 473L610 473Z" fill="#804D67"/>
<path d="M610 473C610 486.329 607.375 499.528 602.274 511.842C597.173 524.157 589.696 535.346 580.271 544.771C570.846 554.196 559.657 561.673 547.342 566.774C535.028 571.875 521.329 574.5 508 574.5V473H610Z" fill="#663D52"/>
<path d="M609 652.5H640V743.5H609V652.5Z" fill="#D9E5FF"/>
<path d="M579 682.5H669V712.5H579V682.5Z" fill="#D9E5FF"/>
<path d="M478 568.5H508V985.5H478V568.5Z" fill="#804D67"/>
<path d="M508 568.5H538V985.5H508V568.5Z" fill="#663D52"/>
<path d="M252 772.5H764V867.5H252V772.5Z" fill="#FFD580"/>
<path d="M508 772.5H764V867.5H508V772.5Z" fill="#FFB366"/>
<path d="M609 682.5H640V712.5H609V682.5Z" fill="#D9E5FF"/>
<ellipse cx="582" cy="197" rx="40" ry="98" fill="black"/>
<path d="M622 332C622 377.287 571.408 414 509 414C446.592 414 396 377.287 396 332" stroke="black" stroke-width="6"/>
<ellipse cx="423" cy="199" rx="40" ry="98" fill="black"/>
<defs>
<linearGradient id="paint0_linear_161_240" x1="252" y1="802.822" x2="764" y2="802.822" gradientUnits="userSpaceOnUse">
<stop offset="0.452559" stop-color="#E64560"/>
<stop offset="0.530062" stop-color="#CC2936"/>
</linearGradient>
<linearGradient id="paint1_linear_161_240" x1="252" y1="802.822" x2="764" y2="802.822" gradientUnits="userSpaceOnUse">
<stop offset="0.452559" stop-color="#E64560"/>
<stop offset="0.530062" stop-color="#CC2936"/>
</linearGradient>
</defs>
</svg>
