<svg width="256" height="257" viewBox="0 0 256 257" fill="none" xmlns="http://www.w3.org/2000/svg">
<path d="M0.437988 76.0142H255.762V256.536H0.437988V76.0142Z" fill="url(#paint0_linear_140_4)"/>
<path d="M30.3587 1.21236H225.342V76.0142H30.3587V1.21236Z" fill="url(#paint1_linear_140_4)"/>
<path d="M178.965 0.963017C178.965 7.60999 177.656 14.1919 175.112 20.3329C172.568 26.4739 168.84 32.0537 164.14 36.7539C159.44 41.454 153.86 45.1823 147.719 47.726C141.578 50.2697 134.996 51.5789 128.349 51.5789C121.702 51.5789 115.12 50.2697 108.979 47.726C102.838 45.1823 97.2584 41.454 92.5583 36.7539C87.8581 32.0537 84.1298 26.4739 81.5861 20.3329C79.0424 14.1919 77.7332 7.60999 77.7332 0.963013L178.965 0.963017Z" fill="#804D67"/>
<path d="M178.965 0.963017C178.965 7.60999 177.656 14.1919 175.112 20.3329C172.568 26.4739 168.84 32.0537 164.14 36.7539C159.44 41.454 153.86 45.1823 147.719 47.726C141.578 50.2697 134.747 51.5789 128.1 51.5789V0.963017H178.965Z" fill="#663D52"/>
<path d="M178.466 90.4759H193.925V135.856H178.466V90.4759Z" fill="#D9E5FF"/>
<path d="M163.506 105.436H208.387V120.397H163.506V105.436Z" fill="#D9E5FF"/>
<path d="M113.139 48.5869H128.1V256.536H113.139V48.5869Z" fill="#804D67"/>
<path d="M128.1 48.5869H143.06V256.536H128.1V48.5869Z" fill="#663D52"/>
<path d="M0.437988 150.317H255.762V197.692H0.437988V150.317Z" fill="#FFD580"/>
<path d="M128.1 150.317H255.762V197.692H128.1V150.317Z" fill="#FFB366"/>
<path d="M178.466 105.436H193.925V120.397H178.466V105.436Z" fill="#D9E5FF"/>
<defs>
<linearGradient id="paint0_linear_140_4" x1="0.437988" y1="165.438" x2="255.762" y2="165.438" gradientUnits="userSpaceOnUse">
<stop offset="0.452559" stop-color="#E64560"/>
<stop offset="0.530062" stop-color="#CC2936"/>
</linearGradient>
<linearGradient id="paint1_linear_140_4" x1="0.437988" y1="165.438" x2="255.762" y2="165.438" gradientUnits="userSpaceOnUse">
<stop offset="0.452559" stop-color="#E64560"/>
<stop offset="0.530062" stop-color="#CC2936"/>
</linearGradient>
</defs>
</svg>
