<svg width="173" height="62" viewBox="0 0 173 62" fill="none" xmlns="http://www.w3.org/2000/svg">
<rect x="21.9419" width="117.19" height="14.4617" rx="4.98679" fill="#FFB74D"/>
<rect x="21.9419" y="47.3745" width="117.19" height="14.4617" rx="4.98679" fill="#FFB74D"/>
<rect x="30.918" y="14.4614" width="101.73" height="32.9128" fill="#795548"/>
<path d="M53.6942 40.7457C53.3845 40.8091 53.0655 40.813 52.7543 40.7572L32.9554 37.2089C29.9794 36.6756 30.3414 32.2986 33.3645 32.2614L72.8693 31.7757C75.8924 31.7385 76.3619 36.1053 73.4 36.7116L53.6942 40.7457Z" fill="#7CB342"/>
<path d="M105.706 40.9496C105.457 40.9905 105.204 40.9936 104.955 40.9588L79.9092 37.4583C76.8566 37.0316 77.1416 32.5336 80.2237 32.4957L130.221 31.8809C133.304 31.843 133.699 36.3327 130.658 36.8343L105.706 40.9496Z" fill="#7CB342"/>
<rect x="27.4272" y="25.4326" width="106.717" height="7.97886" rx="2.49339" fill="#F7A014"/>
<path d="M74.8275 43.5936C73.852 44.5776 72.2614 44.5776 71.2859 43.5936L57.6185 29.8062C56.0583 28.2323 57.1731 25.5574 59.3893 25.5574L86.7241 25.5574C88.9403 25.5574 90.0551 28.2323 88.4949 29.8062L74.8275 43.5936Z" fill="#FFEB3B"/>
<circle cx="109.71" cy="25.4327" r="6.9815" fill="#B71C1C"/>
<circle cx="117.19" cy="25.9312" r="6.9815" fill="#E44B4D"/>
<circle cx="49.868" cy="24.4354" r="7.97886" fill="#E44B4D"/>
</svg>
