<svg width="92" height="177" viewBox="0 0 92 177" fill="none" xmlns="http://www.w3.org/2000/svg">
<path d="M0.0380859 58.4466C0.0380859 47.836 8.63971 39.2344 19.2503 39.2344H72.0841C82.6947 39.2344 91.2963 47.836 91.2963 58.4466V58.4466C91.2963 69.0573 82.6947 77.6589 72.0841 77.6589H19.2503C8.6397 77.6589 0.0380859 69.0573 0.0380859 58.4466V58.4466Z" fill="#079CFF"/>
<path d="M0.0380859 150.623C0.0380859 136.853 11.2014 125.689 24.972 125.689H66.3624C80.133 125.689 91.2963 136.853 91.2963 150.623V151.668C91.2963 165.439 80.133 176.602 66.3624 176.602H24.972C11.2014 176.602 0.0380859 165.439 0.0380859 151.668V150.623Z" fill="#079CFF"/>
<path d="M0.0380859 118.965C0.0380859 108.885 8.20963 100.714 18.2897 100.714H73.0447C83.1248 100.714 91.2963 108.885 91.2963 118.965V118.965C91.2963 129.045 83.1248 137.217 73.0447 137.217H18.2897C8.20962 137.217 0.0380859 129.045 0.0380859 118.965V118.965Z" fill="#079CFF"/>
<path d="M0.0380859 89.1862C0.0380859 79.1061 8.20963 70.9346 18.2897 70.9346H73.0447C83.1248 70.9346 91.2963 79.1061 91.2963 89.1862V89.1862C91.2963 99.2663 83.1248 107.438 73.0447 107.438H18.2897C8.20962 107.438 0.0380859 99.2663 0.0380859 89.1862V89.1862Z" fill="#079CFF"/>
<path d="M0.0380859 89.1862C0.0380859 79.1061 8.20963 70.9346 18.2897 70.9346H59.5961C69.6762 70.9346 77.8477 79.1061 77.8477 89.1862V89.1862C77.8477 99.2663 69.6762 107.438 59.5961 107.438H18.2897C8.20964 107.438 0.0380859 99.2663 0.0380859 89.1862V89.1862Z" fill="#5CBEFF"/>
<path d="M0.0380859 118.965C0.0380859 108.885 8.20963 100.714 18.2897 100.714H59.5961C69.6762 100.714 77.8477 108.885 77.8477 118.965V118.965C77.8477 129.045 69.6762 137.217 59.5961 137.217H18.2897C8.20964 137.217 0.0380859 129.045 0.0380859 118.965V118.965Z" fill="#5CBEFF"/>
<path d="M0.0380859 150.623C0.0380859 136.853 11.2014 125.689 24.972 125.689H52.9138C66.6844 125.689 77.8477 136.853 77.8477 150.623V151.668C77.8477 165.439 66.6844 176.602 52.9138 176.602H24.972C11.2014 176.602 0.0380859 165.439 0.0380859 151.668V150.623Z" fill="#5CBEFF"/>
<path d="M0.0380859 58.4466C0.0380859 47.836 8.63971 39.2344 19.2503 39.2344H58.6355C69.2461 39.2344 77.8477 47.836 77.8477 58.4466V58.4466C77.8477 69.0573 69.2461 77.6589 58.6355 77.6589H19.2504C8.63972 77.6589 0.0380859 69.0573 0.0380859 58.4466V58.4466Z" fill="#5CBEFF"/>
<path d="M45.6673 3.69165L84.3513 44.0374H6.98322L45.6673 3.69165Z" fill="#E5E8EF"/>
<rect x="18.2898" y="0.809814" width="54.7549" height="22.0941" rx="4.98679" fill="#435E88"/>
<path d="M54.877 103.752L46.1475 92.0681L37.418 103.752C35.6744 105.771 34.6201 108.403 34.6201 111.28C34.6201 117.647 39.7811 122.808 46.1475 122.808C52.5139 122.808 57.6748 117.647 57.6748 111.28C57.6748 108.403 56.6205 105.771 54.877 103.752Z" fill="#E5E8EF"/>
</svg>
